<svg xmlns="http://www.w3.org/2000/svg" width="72" height="72" viewBox="0 0 72 72" fill="none"> <g clip-path="url(#clip0_193_71)"> <path d="M60.6236 0H11.3764C5.1032 0 0 5.1032 0 11.3764V60.6236C0 66.8968 5.1032 72 11.3764 72H60.6236C66.8968 72 72 66.8968 72 60.6236V11.3764C72 5.1032 66.8968 0 60.6236 0ZM64.4156 60.6236C64.4156 62.7144 62.7144 64.4156 60.6238 64.4156H11.3764C9.2856 64.4156 7.5846 62.7144 7.5846 60.6236V11.3764C7.5846 9.2856 9.2858 7.5846 11.3764 7.5846H60.6236C62.7144 7.5846 64.4154 9.2858 64.4154 11.3764V60.6236H64.4156Z" fill="#6367FF"/> <path d="M49.9689 21.3174C48.7457 21.3174 47.5961 21.794 46.7309 22.6594L29.7871 39.6308L25.2711 35.1152C24.4065 34.2504 23.2569 33.774 22.0341 33.774C20.8111 33.774 19.6615 34.2504 18.7967 35.115C17.9321 35.9796 17.4561 37.1292 17.4561 38.352C17.4561 39.5748 17.9321 40.7244 18.7967 41.5888L26.5507 49.3428C27.4153 50.2076 28.5649 50.684 29.7879 50.684C31.0103 50.684 32.1603 50.2074 33.0259 49.342L53.2061 29.1328C54.9907 27.3476 54.9905 24.4432 53.2061 22.658C52.3415 21.7936 51.1917 21.3174 49.9689 21.3174Z" fill="#6367FF"/> </g> <defs> <clipPath id="clip0_193_71"> <rect width="72" height="72" fill="white"/> </clipPath> </defs> </svg>