<svg xmlns="http://www.w3.org/2000/svg" width="72" height="72" viewBox="0 0 72 72" fill="none"> <g clip-path="url(#clip0_193_71)"> <path d="M60.6236 0H11.3764C5.1032 0 0 5.1032 0 11.3764V60.6236C0 66.8968 5.1032 72 11.3764 72H60.6236C66.8968 72 72 66.8968 72 60.6236V11.3764C72 5.1032 66.8968 0 60.6236 0ZM64.4156 60.6236C64.4156 62.7144 62.7144 64.4156 60.6238 64.4156H11.3764C9.2856 64.4156 7.5846 62.7144 7.5846 60.6236V11.3764C7.5846 9.2856 9.2858 7.5846 11.3764 7.5846H60.6236C62.7144 7.5846 64.4154 9.2858 64.4154 11.3764V60.6236H64.4156Z" fill="#6367FF"/> </g> <defs> <clipPath id="clip0_193_71"> <rect width="72" height="72" fill="white"/> </clipPath> </defs> </svg>