<svg xmlns="http://www.w3.org/2000/svg" width="110" height="110" viewBox="0 0 110 110" fill="none"> <path d="M10.3027 37.9834L53.5332 64.3779L53.5439 64.3848L53.5557 64.3916C53.9689 64.6498 54.4714 64.7714 54.9453 64.7715C55.4194 64.7715 55.9226 64.6499 56.3359 64.3916L56.3486 64.3838L56.3604 64.376L99.6992 37.9824L103.5 35.668V75.2012C103.5 84.0764 96.2981 91.2782 87.4229 91.2783H22.5771C13.7019 91.2782 6.50009 84.0764 6.5 75.2012V35.6621L10.3027 37.9834Z" fill="#FF8DDE" stroke="#6367FF" stroke-width="5"/> <path d="M87.4229 18.5C95.0366 18.5 101.465 23.9119 103.01 31.1211L103.382 32.8535L101.869 33.7783L56.3574 61.584L55.0557 62.3799L53.7529 61.5859L8.13379 33.7793L6.61816 32.8555L6.99023 31.1211C8.53506 23.9119 14.9635 18.5001 22.5771 18.5H87.4229Z" fill="white" stroke="#6367FF" stroke-width="5"/> </svg>