<svg xmlns="http://www.w3.org/2000/svg" width="116" height="110" viewBox="0 0 116 110" fill="none"> <path d="M57.5 4.5C72.571 4.5 85 16.2881 85 31V40.5H85.625C92.0745 40.5 97.5 45.5594 97.5 52V94C97.5 100.441 92.0745 105.5 85.625 105.5H29.375C22.9255 105.5 17.5 100.441 17.5 94V52C17.5 45.5594 22.9255 40.5 29.375 40.5H30V31C30 16.2881 42.429 4.5 57.5 4.5ZM57.5 17.5C49.5919 17.5 43.333 23.6519 43.333 31V40.5H71.667V31C71.667 23.6519 65.4081 17.5 57.5 17.5ZM55.833 83C55.833 83.7337 56.481 84.5 57.5 84.5C58.519 84.5 59.167 83.7337 59.167 83V72.4229L60.4453 71.707C62.2205 70.7131 63.333 68.9489 63.333 67C63.333 64.0639 60.8123 61.5 57.5 61.5C54.1877 61.5 51.667 64.0639 51.667 67C51.667 68.9489 52.7795 70.7131 54.5547 71.707L55.833 72.4229V83Z" fill="#FF8DDE" stroke="#6367FF" stroke-width="5"/> </svg>