<svg width="118" height="118" viewBox="0 0 118 118" fill="none" xmlns="http://www.w3.org/2000/svg">
<g clip-path="url(#clip0_206_960)">
<path d="M96.1737 0H86.015V34.3814C86.015 36.797 83.5726 37.9914 81.6804 34.9585L74.9705 24.2227L68.2606 34.9585C66.355 37.9779 63.926 36.797 63.926 34.3814V0H29.8666C21.6333 0.0221426 14.9707 6.70284 14.9707 14.9362V103.104C14.9928 111.322 21.649 117.978 29.8666 118H96.1871C98.0008 117.997 99.739 117.273 101.018 115.987C102.304 114.708 103.028 112.97 103.031 111.156V6.8575C103.024 3.07313 99.9581 0.00738087 96.1737 0ZM97.4486 100.286L32.7385 100.366C31.3281 100.464 30.2058 101.586 30.1085 102.996C30.0008 104.556 31.1784 105.908 32.7385 106.016H97.4486L97.4352 111.223C97.4358 111.533 97.3154 111.832 97.0997 112.055C96.8766 112.271 96.578 112.391 96.2676 112.391H29.8666C24.7712 112.391 20.6406 108.26 20.6406 103.164C20.6406 98.069 24.7712 93.9384 29.8666 93.9384H96.2676C96.9168 93.9457 97.4412 94.4701 97.4486 95.1193V100.286Z" fill="#FF8DDE"/>
</g>
<defs>
<clipPath id="clip0_206_960">
<rect width="118" height="118" fill="white"/>
</clipPath>
</defs>
</svg>
