<svg width="212" height="212" viewBox="0 0 212 212" fill="none" xmlns="http://www.w3.org/2000/svg">
<path fill-rule="evenodd" clip-rule="evenodd" d="M68.4805 27.5352H121.698L168.674 74.52V164.745C168.674 175.701 159.711 184.672 148.746 184.672H68.4808C57.5248 184.672 48.5625 175.701 48.5625 164.745V47.4624C48.5625 36.5064 57.5248 27.5352 68.4805 27.5352Z" fill="#55E7FE"/>
<path fill-rule="evenodd" clip-rule="evenodd" d="M121.697 27.5352L168.673 74.52H126.762C123.969 74.52 121.697 72.239 121.697 69.4462V27.5352Z" fill="#6367FF"/>
<path fill-rule="evenodd" clip-rule="evenodd" d="M26.3187 94.4473H134.54C136.947 94.4473 138.913 96.4139 138.913 98.8207V138.522C138.913 140.929 136.947 142.896 134.54 142.896H26.3187C23.912 142.896 21.9453 140.929 21.9453 138.522V98.8207C21.9453 96.4139 23.9123 94.4473 26.3187 94.4473Z" fill="#6367FF"/>
<path d="M52.8836 102.543H44.7205C43.3195 102.543 42.1836 103.679 42.1836 105.08V118.46V121.756V132.254C42.1836 133.655 43.3195 134.791 44.7205 134.791C46.1215 134.791 47.2574 133.655 47.2574 132.254V124.293H52.8833C58.7833 124.293 63.5833 119.493 63.5833 113.593V113.243C63.5837 107.343 58.7836 102.543 52.8836 102.543ZM58.5099 113.593C58.5099 116.695 55.9858 119.219 52.8836 119.219H47.2574V118.46V107.616H52.8833C55.9855 107.616 58.5095 110.14 58.5095 113.242V113.593H58.5099ZM80.1837 102.543H72.0208C70.6198 102.543 69.484 103.679 69.484 105.08V132.254C69.484 133.655 70.6198 134.791 72.0208 134.791H80.1837C86.0837 134.791 90.8837 129.991 90.8837 124.091V113.243C90.8837 107.343 86.0837 102.543 80.1837 102.543ZM85.8099 124.091C85.8099 127.193 83.2859 129.717 80.1837 129.717H74.5578V107.616H80.1837C83.2859 107.616 85.8099 110.14 85.8099 113.242V124.091ZM102.351 107.617V114.639H114.111C115.512 114.639 116.648 115.775 116.648 117.176C116.648 118.577 115.512 119.713 114.111 119.713H102.351V132.254C102.351 133.655 101.215 134.791 99.8144 134.791C98.4134 134.791 97.2775 133.655 97.2775 132.254V105.08C97.2775 103.679 98.4134 102.543 99.8144 102.543H116.14C117.541 102.543 118.677 103.679 118.677 105.08C118.677 106.481 117.541 107.617 116.14 107.617H102.351Z" fill="white"/>
</svg>
