<svg width="74" height="74" viewBox="0 0 74 74" fill="none" xmlns="http://www.w3.org/2000/svg">
<path d="M54.5521 33.9012C55.9396 36.6763 56.6565 39.6594 56.6565 42.7812C56.6565 53.6269 47.8459 62.4375 37.0003 62.4375C26.1546 62.4375 17.344 53.6269 17.344 42.7812C17.344 31.9356 26.1546 23.125 37.0003 23.125C37.1621 23.125 37.5553 23.125 37.9715 23.2638C38.7578 23.5181 39.3359 24.1888 39.4978 24.9981C40.469 29.6463 44.6084 33.0456 49.3721 33.0456C50.2509 33.0456 51.1065 32.93 51.8465 32.7219C52.9334 32.4212 54.0434 32.93 54.5521 33.9012ZM37.0003 11.5625C21.1828 11.5625 4.97214 25.4375 2.33589 41.2319C2.12776 42.4806 2.98339 43.6831 4.23214 43.8913C5.48089 44.0994 6.68339 43.2437 6.89151 41.995C8.94964 29.8081 22.2465 16.1875 37.0003 16.1875C51.754 16.1875 65.0509 29.8081 67.0859 41.995C67.2709 43.1281 68.2653 43.9375 69.3753 43.9375C69.4909 43.9375 69.6296 43.9375 69.7684 43.9144C71.0171 43.7062 71.8728 42.5037 71.6646 41.255C69.0284 25.4375 52.8178 11.5625 37.0003 11.5625Z" fill="#3A80D1"/>
</svg>
