<svg width="194" height="194" viewBox="0 0 194 194" fill="none" xmlns="http://www.w3.org/2000/svg">
<path d="M125.039 56.8359C117.727 56.8359 111.777 50.8867 111.777 43.5742V0H43.9531C32.462 0 23.1133 9.34875 23.1133 20.8398V173.16C23.1133 184.651 32.462 194 43.9531 194H150.047C161.538 194 170.887 184.651 170.887 173.16V56.8359H125.039ZM54.1836 136.406H81.7377C84.8765 136.406 87.4212 138.951 87.4212 142.09C87.4212 145.229 84.8765 147.773 81.7377 147.773H54.1836C51.0447 147.773 48.5 145.229 48.5 142.09C48.5 138.951 51.0447 136.406 54.1836 136.406ZM48.5 111.777C48.5 108.638 51.0447 106.094 54.1836 106.094H137.543C140.682 106.094 143.227 108.638 143.227 111.777C143.227 114.916 140.682 117.461 137.543 117.461H54.1836C51.0447 117.461 48.5 114.916 48.5 111.777ZM137.543 75.7812C140.682 75.7812 143.227 78.326 143.227 81.4648C143.227 84.6037 140.682 87.1484 137.543 87.1484H54.1836C51.0447 87.1484 48.5 84.6037 48.5 81.4648C48.5 78.326 51.0447 75.7812 54.1836 75.7812H137.543Z" fill="#FF9677"/>
<path d="M123.145 43.5745C123.145 44.6191 123.994 45.469 125.039 45.469H168.353C167.314 43.5495 165.976 41.7864 164.369 40.2659L127.834 5.70127C126.416 4.35994 124.837 3.24103 123.145 2.35742V43.5745H123.145Z" fill="#FF9677"/>
</svg>
